<svg id="black" xmlns="http://www.w3.org/2000/svg" viewBox="0 0 291 454.8"><defs><style>.cls-1{stroke:#000;stroke-miterlimit:10;}</style></defs><path class="cls-1" d="M144.94.75c-80.08,0-145,63-145,140.72,0,0,0,.14,0,.39a136.81,136.81,0,0,0,4.41,34.19c9.72,49.4,40.86,148.68,140.58,278,99.72-129.31,130.86-228.59,140.58-278a137.26,137.26,0,0,0,4.42-34.18v-.4C289.94,63.76,225,.75,144.94.75Zm113,143.64a110.14,110.14,0,0,1-3.44,27C246.92,210.49,222.65,284,144.94,386.26,67.23,284,43,210.49,35.38,171.43a110.2,110.2,0,0,1-3.44-27v-.31c0-61.46,50.59-111.28,113-111.28s113,49.82,113,111.28Z"/><rect x="72.44" y="88.04" width="145" height="13" rx="3.5"/><path d="M213.94,88.54a3,3,0,0,1,3,3v6a3,3,0,0,1-3,3h-138a3,3,0,0,1-3-3v-6a3,3,0,0,1,3-3h138m0-1h-138a4,4,0,0,0-4,4v6a4,4,0,0,0,4,4h138a4,4,0,0,0,4-4v-6a4,4,0,0,0-4-4Z"/><rect x="135.94" y="64.04" width="18" height="148" rx="3.5"/><path d="M150.44,64.54a3,3,0,0,1,3,3v141a3,3,0,0,1-3,3h-11a3,3,0,0,1-3-3v-141a3,3,0,0,1,3-3h11m0-1h-11a4,4,0,0,0-4,4v141a4,4,0,0,0,4,4h11a4,4,0,0,0,4-4v-141a4,4,0,0,0-4-4Z"/><path d="M99.94,223.54c-4.1,0-6.32-.68-6.6-2s1.49-2.85,5.25-4.48l33.3-14.39a37.71,37.71,0,0,1,26.1,0L191.29,217c3.76,1.63,5.53,3.14,5.25,4.48s-2.5,2-6.6,2Z"/><path d="M144.94,200.81a33.56,33.56,0,0,1,12.85,2.29l33.3,14.39c7.07,3,6.55,5.55-1.15,5.55h-90c-7.7,0-8.22-2.5-1.15-5.55l33.3-14.39a33.56,33.56,0,0,1,12.85-2.29m0-1a34.44,34.44,0,0,0-13.25,2.37L98.4,216.57c-4.07,1.76-5.89,3.41-5.55,5S95.51,224,99.94,224h90c4.43,0,6.75-.79,7.09-2.43s-1.47-3.28-5.54-5l-33.3-14.39a34.44,34.44,0,0,0-13.25-2.37Z"/><path d="M88.39,194C67.77,194,51,185.27,50.9,174.55v-.12l34.41-73.82L83.17,96l5.09-2.38.14.3.12-.25,5.1,2.37-2.12,4.53,34.35,73.68,0,.21C125.89,185.25,109.07,194,88.39,194Zm28.77-20L90.74,117.16V174Zm-31.11,0V117L59.54,174Z"/><path d="M88,94.33l.38.82.37-.78L93,96.32l-2,4.29,34.44,73.89h0c0,10.49-16.56,19-37,19s-36.95-8.48-37-19l34.46-73.93-2-4.33,4.18-2M58.76,174.5H86.55V114.71L58.76,174.5m31.48,0H118L90.24,114.9v59.6M88.51,93l-.16.07-.07,0,0,.08-.65.3-4.19,2-.9.42.42.91,1.82,3.91L50.49,174.12l-.09.21v.22c0,5.46,4.07,10.53,11.41,14.29,7.12,3.65,16.56,5.66,26.58,5.66s19.5-2,26.62-5.68c7.33-3.76,11.37-8.83,11.38-14.28l0-.23-.11-.23L92.06,100.61l1.8-3.87.42-.9-.91-.42-4.18-2-.6-.27L88.51,93ZM60.32,173.5l25.23-54.26V173.5Zm30.92,0V119.42l25.14,54.08Z"/><path d="M201.49,194c-20.68,0-37.5-8.75-37.5-19.5v-.11l34.39-73.78-2.11-4.53,5.09-2.37.12.25.14-.3L206.71,96l-2.13,4.57L239,174.43v.12C238.94,185.27,222.12,194,201.49,194Zm28.85-20-26.5-57v57Zm-31.2,0V117.16L172.72,174Z"/><path d="M201.86,94.33l4.18,2-2,4.33,34.47,73.93c-.05,10.48-16.6,19-37,19s-37-8.51-37-19h0l34.44-73.89-2-4.29,4.19-1.95.36.78.38-.82m1.48,80.17h27.78l-27.78-59.79V174.5m-31.41,0h27.71V114.9l-27.71,59.6M201.38,93l-.09.19-.6.27-4.18,2-.91.42.42.9,1.81,3.87-34.25,73.47-.09.2v.22c0,5.47,4,10.56,11.38,14.32,7.13,3.66,16.58,5.68,26.62,5.68s19.46-2,26.59-5.66c7.33-3.76,11.38-8.83,11.41-14.29v-.22l-.1-.21-34.26-73.51L207,96.7l.42-.91-.9-.42-4.19-2-.64-.3,0-.08-.07,0-.15-.07Zm3,80.5V119.24l25.22,54.26Zm-30.84,0,25.14-54.08V173.5Z"/></svg>
